<?xml version="1.0" standalone="no"?>
<!DOCTYPE svg PUBLIC "-//W3C//DTD SVG 20010904//EN"
 "http://www.w3.org/TR/2001/REC-SVG-20010904/DTD/svg10.dtd">
<svg version="1.0" xmlns="http://www.w3.org/2000/svg"
 width="200.000000pt" height="200.000000pt" viewBox="0 0 200.000000 200.000000"
 preserveAspectRatio="xMidYMid meet">
<metadata>
Created by potrace 1.11, written by Peter Selinger 2001-2013
</metadata>
<g transform="translate(0.000000,200.000000) scale(0.100000,-0.100000)"
fill="#000000" stroke="none">
<path d="M591 1989 c-216 -43 -412 -190 -511 -382 -17 -32 -30 -62 -30 -67 0
-4 239 -8 531 -8 379 0 546 -4 583 -13 237 -56 372 -277 319 -526 -30 -146
-133 -262 -272 -307 -66 -22 -90 -24 -243 -25 l-138 -1 0 -330 0 -331 263 1
c274 1 339 8 450 50 147 55 303 197 376 342 76 151 80 182 79 603 0 412 -5
456 -63 583 -92 198 -271 347 -484 402 -66 17 -112 19 -445 18 -204 0 -391 -4
-415 -9z"/>
<path d="M1 955 c1 -286 4 -340 20 -405 52 -204 195 -380 385 -474 42 -21 84
-39 93 -41 9 -2 31 -7 48 -11 l33 -6 0 424 c0 416 0 425 21 444 18 17 41 18
257 19 156 1 249 5 273 13 79 27 121 110 108 210 -10 70 -32 100 -94 132 l-50
24 -548 1 -548 0 2 -330z"/>
</g>
</svg>
